<?xml version="1.0" encoding="utf-8"?>
<!-- Generator: Adobe Illustrator 28.0.0, SVG Export Plug-In . SVG Version: 6.00 Build 0)  -->
<svg version="1.1" id="Layer_1" xmlns="http://www.w3.org/2000/svg" xmlns:xlink="http://www.w3.org/1999/xlink" x="0px" y="0px"
	 viewBox="0 0 1883.9 1883.9" style="enable-background:new 0 0 1883.9 1883.9;" xml:space="preserve">
<style type="text/css">
	.st0{fill-rule:evenodd;clip-rule:evenodd;fill:#11709F;}
	.st1{fill:none;stroke:#BF0F0F;stroke-width:100;stroke-miterlimit:10;}
	.st2{fill-rule:evenodd;clip-rule:evenodd;fill:#FDCD06;}
</style>
<path class="st0" d="M941.2,11.1c511.6,0,930.2,418.6,930.2,930.2s-418.6,930.2-930.2,930.2S11,1452.8,11,941.2
	S429.6,11.1,941.2,11.1"/>
<path class="st1" d="M1257.8,1396.5c0-61.4,12.2-158.3-79.2-158.3h-4.6l-60.6-514.6l168.1-79.2V327.7h-63.4
	c-21.9,0-39.6,17.7-39.6,39.6v79.2h-158.3v-79.2c0-21.9-17.7-39.6-39.6-39.6h-79.2c-21.9,0-39.6,17.7-39.6,39.6v79.2H703.6v-79.2
	c0-21.9-17.7-39.6-39.6-39.6h-63.3v316.7l168.1,79.2l-60.6,514.6h-4.6c-91.4,0-79.2,96.9-79.2,158.3
	c-119.1,0-100.7,43.2-158.3,158.3c316.7,0,633.4,0,950.1,0C1358.6,1439.6,1376.9,1396.5,1257.8,1396.5z"/>
<path class="st2" d="M1257.9,1396.5c0-61.4,12.2-158.3-79.2-158.3h-4.6l-60.6-514.6l168.1-79.2V327.7h-63.4
	c-21.9,0-39.6,17.7-39.6,39.6v79.2h-158.3v-79.2c0-21.9-17.7-39.6-39.6-39.6h-79.2c-21.9,0-39.6,17.7-39.6,39.6v79.2H703.7v-79.2
	c0-21.9-17.7-39.6-39.6-39.6h-63.3v316.7l168.1,79.2l-60.6,514.6h-4.6c-91.4,0-79.2,96.9-79.2,158.3
	c-119.1,0-100.7,43.2-158.3,158.3c316.7,0,633.4,0,950.1,0C1358.6,1439.6,1377,1396.5,1257.9,1396.5"/>
</svg>
